# Blender v2.92.0 OBJ File: 'table.blend'
# www.blender.org
mtllib chair.mtl
o table_top_2_Cube.002
v 0.488441 0.941911 2.937114
v 0.488441 0.836874 2.937114
v 0.488441 0.941911 3.937114
v 0.488441 0.836874 3.937114
v -0.511559 0.941911 2.937114
v -0.511559 0.836874 2.937114
v -0.511559 0.941911 3.937114
v -0.511559 0.836874 3.937114
vt 0.625000 0.500000
vt 0.875000 0.500000
vt 0.875000 0.750000
vt 0.625000 0.750000
vt 0.375000 0.750000
vt 0.625000 1.000000
vt 0.375000 1.000000
vt 0.375000 0.000000
vt 0.625000 0.000000
vt 0.625000 0.250000
vt 0.375000 0.250000
vt 0.125000 0.500000
vt 0.375000 0.500000
vt 0.125000 0.750000
vn 0.0000 1.0000 0.0000
vn 0.0000 0.0000 1.0000
vn -1.0000 0.0000 0.0000
vn 0.0000 -1.0000 0.0000
vn 1.0000 0.0000 0.0000
vn 0.0000 0.0000 -1.0000
usemtl Material.002
s off
f 1/1/1 5/2/1 7/3/1 3/4/1
f 4/5/2 3/4/2 7/6/2 8/7/2
f 8/8/3 7/9/3 5/10/3 6/11/3
f 6/12/4 2/13/4 4/5/4 8/14/4
f 2/13/5 1/1/5 3/4/5 4/5/5
f 6/11/6 5/10/6 1/1/6 2/13/6
o table_legs_2_Cube
v 0.252969 -0.009013 3.650379
v 0.252969 0.841811 3.650379
v 0.252969 -0.009013 3.726760
v 0.252969 0.841811 3.726760
v 0.355637 -0.009013 3.650379
v 0.355637 0.841811 3.650379
v 0.355637 -0.009013 3.726760
v 0.355637 0.841811 3.726760
v -0.276088 -0.009013 3.650379
v -0.276088 0.841811 3.650379
v -0.276088 -0.009013 3.726760
v -0.276088 0.841811 3.726760
v -0.378756 -0.009013 3.650379
v -0.378756 0.841811 3.650379
v -0.378756 -0.009013 3.726760
v -0.378756 0.841811 3.726760
v 0.252969 -0.009013 3.223849
v 0.252969 0.841811 3.223849
v 0.252969 -0.009013 3.147467
v 0.252969 0.841811 3.147467
v 0.355637 -0.009013 3.223849
v 0.355637 0.841811 3.223849
v 0.355637 -0.009013 3.147467
v 0.355637 0.841811 3.147467
v -0.276088 -0.009013 3.223849
v -0.276088 0.841811 3.223849
v -0.276088 -0.009013 3.147467
v -0.276088 0.841811 3.147467
v -0.378756 -0.009013 3.223849
v -0.378756 0.841811 3.223849
v -0.378756 -0.009013 3.147467
v -0.378756 0.841811 3.147467
vt 0.375000 0.000000
vt 0.375000 0.250000
vt 0.625000 0.250000
vt 0.625000 0.000000
vt 0.375000 0.500000
vt 0.625000 0.500000
vt 0.375000 0.750000
vt 0.625000 0.750000
vt 0.375000 1.000000
vt 0.625000 1.000000
vt 0.125000 0.500000
vt 0.125000 0.750000
vt 0.875000 0.750000
vt 0.875000 0.500000
vt 0.375000 0.000000
vt 0.625000 0.000000
vt 0.625000 0.250000
vt 0.375000 0.250000
vt 0.625000 0.500000
vt 0.375000 0.500000
vt 0.625000 0.750000
vt 0.375000 0.750000
vt 0.625000 1.000000
vt 0.375000 1.000000
vt 0.125000 0.500000
vt 0.125000 0.750000
vt 0.875000 0.500000
vt 0.875000 0.750000
vt 0.375000 0.000000
vt 0.625000 0.000000
vt 0.625000 0.250000
vt 0.375000 0.250000
vt 0.625000 0.500000
vt 0.375000 0.500000
vt 0.625000 0.750000
vt 0.375000 0.750000
vt 0.625000 1.000000
vt 0.375000 1.000000
vt 0.125000 0.500000
vt 0.125000 0.750000
vt 0.875000 0.500000
vt 0.875000 0.750000
vt 0.375000 0.000000
vt 0.375000 0.250000
vt 0.625000 0.250000
vt 0.625000 0.000000
vt 0.375000 0.500000
vt 0.625000 0.500000
vt 0.375000 0.750000
vt 0.625000 0.750000
vt 0.375000 1.000000
vt 0.625000 1.000000
vt 0.125000 0.500000
vt 0.125000 0.750000
vt 0.875000 0.750000
vt 0.875000 0.500000
vn -1.0000 0.0000 0.0000
vn 0.0000 0.0000 1.0000
vn 1.0000 0.0000 0.0000
vn 0.0000 0.0000 -1.0000
vn 0.0000 -1.0000 0.0000
vn 0.0000 1.0000 0.0000
usemtl None
s off
f 9/15/7 11/16/7 12/17/7 10/18/7
f 11/16/8 15/19/8 16/20/8 12/17/8
f 15/19/9 13/21/9 14/22/9 16/20/9
f 13/21/10 9/23/10 10/24/10 14/22/10
f 11/25/11 9/26/11 13/21/11 15/19/11
f 16/20/12 14/22/12 10/27/12 12/28/12
f 17/29/9 18/30/9 20/31/9 19/32/9
f 19/32/8 20/31/8 24/33/8 23/34/8
f 23/34/7 24/33/7 22/35/7 21/36/7
f 21/36/10 22/35/10 18/37/10 17/38/10
f 19/39/11 23/34/11 21/36/11 17/40/11
f 24/33/12 20/41/12 18/42/12 22/35/12
f 25/43/7 26/44/7 28/45/7 27/46/7
f 27/46/10 28/45/10 32/47/10 31/48/10
f 31/48/9 32/47/9 30/49/9 29/50/9
f 29/50/8 30/49/8 26/51/8 25/52/8
f 27/53/11 31/48/11 29/50/11 25/54/11
f 32/47/12 28/55/12 26/56/12 30/49/12
f 33/57/9 35/58/9 36/59/9 34/60/9
f 35/58/10 39/61/10 40/62/10 36/59/10
f 39/61/7 37/63/7 38/64/7 40/62/7
f 37/63/8 33/65/8 34/66/8 38/64/8
f 35/67/11 33/68/11 37/63/11 39/61/11
f 40/62/12 38/64/12 34/69/12 36/70/12
